<?xml version="1.0" standalone="no"?>
<!DOCTYPE svg PUBLIC "-//W3C//DTD SVG 20010904//EN"
 "http://www.w3.org/TR/2001/REC-SVG-20010904/DTD/svg10.dtd">
<svg version="1.0" xmlns="http://www.w3.org/2000/svg"
 width="100.000000pt" height="100.000000pt" viewBox="0 0 100.000000 100.000000"
 preserveAspectRatio="xMidYMid meet">
<metadata>
Created by potrace 1.11, written by Peter Selinger 2001-2013
</metadata>
<g transform="translate(0.000000,100.000000) scale(0.100000,-0.100000)"
fill="#000000" stroke="none">
<path d="M0 500 l0 -500 500 0 500 0 0 500 0 500 -500 0 -500 0 0 -500z m350
205 c73 -112 136 -203 139 -201 3 2 67 94 141 205 l135 200 48 1 47 0 0 -405
0 -405 -45 0 -45 0 -2 321 -3 321 -134 -188 c-74 -104 -137 -193 -141 -197 -4
-5 -68 80 -141 188 l-134 197 -3 -321 -2 -321 -45 0 -45 0 0 405 0 405 49 0
48 0 133 -205z"/>
</g>
</svg>
